<svg width="13" height="11" viewBox="0 0 13 11" fill="none" xmlns="http://www.w3.org/2000/svg">
<path d="M11.6413 1.10789C10.1683 -0.0406967 7.90794 0.123388 6.51112 1.4595C5.0889 0.123388 2.82859 -0.0406967 1.35557 1.10789C-0.549187 2.58465 -0.269822 4.99903 1.1016 6.28827L5.54604 10.4841C5.80001 10.7185 6.13017 10.8592 6.51112 10.8592C6.86668 10.8592 7.19683 10.7185 7.4508 10.4841L11.9206 6.28827C13.2667 4.99903 13.546 2.58465 11.6413 1.10789ZM11.0317 5.49129L6.58731 9.68715C6.53652 9.73404 6.48572 9.73404 6.40953 9.68715L1.96509 5.49129C1.02541 4.62398 0.847636 2.98314 2.14287 1.9752C3.13335 1.20166 4.65715 1.31886 5.62223 2.2096L6.51112 3.05346L7.40001 2.2096C8.33969 1.31886 9.8635 1.20166 10.854 1.95175C12.1492 2.98314 11.9714 4.62398 11.0317 5.49129Z" fill="#60C5A9"/>
</svg>
